<svg width="42" height="42" viewBox="0 0 42 42" fill="none" xmlns="http://www.w3.org/2000/svg">
<rect width="42" height="42" rx="10" fill="#79EF50"/>
<path fill-rule="evenodd" clip-rule="evenodd" d="M21.0001 11.5568C14.4932 11.5568 9.21828 16.7081 9.21828 23.0625C9.21828 26.2375 10.5334 29.1101 12.6639 31.1932L10.8114 33C8.21069 30.4571 6.6001 26.9422 6.6001 23.0625C6.6001 15.296 13.0472 9 21.0001 9C28.953 9 35.4001 15.296 35.4001 23.0625C35.4001 26.9422 33.7895 30.4571 31.1888 33L29.3363 31.1932C31.4668 29.1101 32.7819 26.2375 32.7819 23.0625C32.7819 16.7081 27.507 11.5568 21.0001 11.5568Z" fill="#0D383A"/>
<path d="M18.3819 23.0625L26.6728 16.3295L27.8946 17.5227L20.9128 25.6193L18.3819 23.0625Z" fill="#0D383A"/>
</svg>
