<svg width="20" height="20" viewBox="0 0 20 20" fill="none" xmlns="http://www.w3.org/2000/svg">
<path d="M17.9999 16.9999V14.636C17.9995 13.9914 17.7849 13.3653 17.39 12.8559C16.9952 12.3465 16.4423 11.9826 15.8182 11.8215M13.6361 16.9996V14.6357C13.6361 13.8642 13.3296 13.1243 12.784 12.5787C12.2385 12.0332 11.4986 11.7267 10.727 11.7267H4.90902C4.1375 11.7267 3.39758 12.0332 2.85203 12.5787C2.30648 13.1243 2 13.8642 2 14.6357V16.9996M12.9088 3.09445C13.5345 3.25466 14.0892 3.61858 14.4852 4.12883C14.8813 4.63908 15.0963 5.26663 15.0963 5.91256C15.0963 6.55848 14.8813 7.18604 14.4852 7.69628C14.0892 8.20653 13.5345 8.57045 12.9088 8.73066M10.7274 5.90865C10.7274 7.51526 9.42499 8.81767 7.81839 8.81767C6.21178 8.81767 4.90937 7.51526 4.90937 5.90865C4.90937 4.30204 6.21178 2.99963 7.81839 2.99963C9.42499 2.99963 10.7274 4.30204 10.7274 5.90865Z" stroke="white" stroke-width="1.5" stroke-linecap="round" stroke-linejoin="round"/>
</svg>
