<svg width="20" height="20" viewBox="0 0 20 20" fill="none" xmlns="http://www.w3.org/2000/svg">
<g clip-path="url(#clip0_699_9794)">
<path d="M9.99984 18.3333C14.6022 18.3333 18.3332 14.6024 18.3332 9.99999C18.3332 5.39762 14.6022 1.66666 9.99984 1.66666C5.39746 1.66666 1.6665 5.39762 1.6665 9.99999C1.6665 14.6024 5.39746 18.3333 9.99984 18.3333Z" stroke="white" stroke-width="1.5" stroke-linecap="round" stroke-linejoin="round"/>
<path d="M1.6665 10H18.3332" stroke="white" stroke-width="1.5" stroke-linecap="round" stroke-linejoin="round"/>
<path d="M9.99984 1.66666C12.0842 3.94862 13.2688 6.91002 13.3332 9.99999C13.2688 13.09 12.0842 16.0514 9.99984 18.3333C7.91544 16.0514 6.73088 13.09 6.6665 9.99999C6.73088 6.91002 7.91544 3.94862 9.99984 1.66666V1.66666Z" stroke="white" stroke-width="1.5" stroke-linecap="round" stroke-linejoin="round"/>
</g>
<defs>
<clipPath id="clip0_699_9794">
<rect width="20" height="20" fill="white"/>
</clipPath>
</defs>
</svg>
