<svg width="20" height="20" viewBox="0 0 20 20" fill="none" xmlns="http://www.w3.org/2000/svg">
<path d="M11.6673 2H3.66667C3.48986 2 3.32029 2.07024 3.19526 2.19526C3.07024 2.32029 3 2.48986 3 2.66667V17.3333C3 17.5101 3.07024 17.6797 3.19526 17.8047C3.32029 17.9298 3.48986 18 3.66667 18H15.6673C15.7549 18 15.8416 17.9828 15.9224 17.9493C16.0033 17.9157 16.0768 17.8666 16.1387 17.8047C16.2006 17.7428 16.2497 17.6693 16.2832 17.5885C16.3167 17.5076 16.334 17.4209 16.334 17.3333V6.66667M11.6673 2L16.334 6.66667M11.6673 2V6.66667H16.334M7.00065 10.6667H12.334M7.00065 13.3333H12.334" stroke="white" stroke-width="1.5" stroke-linecap="round" stroke-linejoin="round"/>
</svg>
