<svg width="32" height="32" viewBox="0 0 32 32" fill="none" xmlns="http://www.w3.org/2000/svg">
<g clip-path="url(#clip0_865_12778)">
<path d="M20 16.007C19.9992 17.1959 19.7818 18.3342 19.3856 19.3849C18.335 19.7814 17.1963 19.9993 16.0069 20.0001H15.9931C14.8043 19.9993 13.6659 19.7821 12.6154 19.3857C12.219 18.3353 12.0008 17.1966 12 16.0073V15.9934C12.0008 14.8045 12.2186 13.6662 12.6142 12.6156C13.6653 12.2193 14.8038 12.0012 15.9931 12.0004H16.0069C17.1963 12.0012 18.335 12.2193 19.3855 12.6156C19.7815 13.6663 19.9991 14.8046 19.9999 15.9935V16.0074V16.0072L20 16.007ZM31.7776 13.3334H22.4379L29.0419 6.72936C28.5234 6.00119 27.9451 5.31754 27.313 4.68552L27.3126 4.68488C26.6811 4.05346 25.9981 3.47573 25.2707 2.95768L18.6667 9.56168V0.22256C17.7883 0.0749539 16.8991 0.000511674 16.0083 0L15.9914 0C15.1007 0.000475772 14.2116 0.0748644 13.3333 0.2224V9.56216L6.72928 2.95816C6.00151 3.47639 5.31821 4.05439 4.68648 4.68616L4.68408 4.68832C4.05322 5.31958 3.476 6.00225 2.9584 6.72928L9.5624 13.3333H0.2224C0.2224 13.3333 0.00032 15.0877 0 15.9941V16.0057C0.000333282 16.8974 0.0747223 17.7876 0.2224 18.667H9.56208L2.95808 25.271C3.99662 26.729 5.27119 28.0036 6.72928 29.0422L13.3333 22.4383V31.7776C14.2108 31.925 15.099 31.9993 15.9888 32H16.0117C16.9014 31.9993 17.7895 31.9249 18.6669 31.7776V22.4378L25.2709 29.0418C25.9984 28.5238 26.6815 27.946 27.3131 27.3145L27.3147 27.3133C27.9461 26.6817 28.5238 25.9986 29.0419 25.2711L22.4379 18.667H31.7776C31.9249 17.7896 31.9993 16.9014 32 16.0118V15.9888C31.9993 15.0991 31.9249 14.211 31.7776 13.3336V13.3334Z" fill="#FF4A00"/>
</g>
<defs>
<clipPath id="clip0_865_12778">
<rect width="32" height="32" fill="white"/>
</clipPath>
</defs>
</svg>
